<?xml version="1.0" encoding="utf-8"?>
<!-- Generator: Adobe Illustrator 21.0.0, SVG Export Plug-In . SVG Version: 6.00 Build 0)  -->
<svg version="1.1" id="Layer_1" xmlns="http://www.w3.org/2000/svg" xmlns:xlink="http://www.w3.org/1999/xlink" x="0px" y="0px"
	 viewBox="0 0 800 600" style="enable-background:new 0 0 800 600;" xml:space="preserve">
<style type="text/css">
	.st0{fill:#00A651;}
	.st1{font-family:'ASTERA';}
	.st2{font-size:50.366px;}
</style>
<g>
	<text transform="matrix(0.6325 0 0 1 245.0665 386.6245)" class="st0 st1 st2">Gamer Space</text>
	<g transform="translate(-1)">
		<g>
			<g>
				<path class="st0" d="M360.2,248.7h-7.8v-7.8c0-4.3-3.5-7.8-7.8-7.8c-4.3,0-7.8,3.5-7.8,7.8v7.8h-7.8c-4.3,0-7.8,3.5-7.8,7.8
					c0,4.3,3.5,7.8,7.8,7.8h7.8v7.8c0,4.3,3.5,7.8,7.8,7.8c4.3,0,7.8-3.5,7.8-7.8v-7.8h7.8c4.3,0,7.8-3.5,7.8-7.8
					C368,252.2,364.5,248.7,360.2,248.7z"/>
				<path class="st0" d="M465,269.1c-4.7-18.3-12.1-36.7-19.4-51.9c-0.1-0.6-0.6-2.6-0.8-3.3c-0.4-1.6-0.8-2.9-1.2-4.1
					c-1.2-3.1-2.3-5-5.6-6.2l-22.7-8.6c-4.4-1.7-9.3-1.1-13.2,1.6l-0.8,0.5l-0.6,0.7c-0.6,0.7-1.7,1.9-2.8,3
					c-0.3,0.3-0.3,0.3-0.6,0.6c-0.1,0.1-0.3,0.3-0.4,0.4h-41.9c-0.4-0.4-0.4-0.4-0.7-0.8c-1-1.1-1.9-2.2-2.5-2.9l-0.7-0.9l-0.9-0.6
					c-3.9-2.7-8.8-3.3-13.2-1.6l-22.7,8.6c-3.3,1.2-4.4,3.1-5.6,6.2c-0.4,1.1-0.8,2.4-1.2,4.1c-0.1,0.6-0.6,2.5-0.7,2.9
					c-7,14.2-15.2,34-20,52.5c-7.9,30-6.4,52.4,9.9,63.2c5,3.3,11.6,2.7,16-1.3l27-24.3c2.4-2.1,5.4-3.3,8.5-3.3H404
					c3.1,0,6.1,1.2,8.5,3.3l27,24.2c4.5,4,11.1,4.7,16.2,1.2C471.4,321.3,472.7,299,465,269.1z M448.4,318.1L423,295.3
					c-5.2-4.7-12-7.3-18.9-7.3h-55.9c-7,0-13.7,2.6-19,7.3l-25.5,22.9c-7.2-6.6-7.8-22.5-1.9-45c4.5-17.2,12.3-36.1,18.9-49.2
					c0.5-1,0.8-1.9,1.2-3.4c0.1-0.5,0.6-2.4,0.7-2.9c0.1-0.2,0.1-0.4,0.2-0.6l18.7-7.1c0.4,0.5,0.9,1,1.4,1.6
					c0.4,0.4,0.4,0.4,0.8,0.9c3.6,3.8,5,5,8.9,5h46.9c3.7,0,5-1,8.9-4.9c0.4-0.4,0.4-0.4,0.8-0.8c0.6-0.6,1.2-1.3,1.8-1.9l18.8,7.1
					c0.1,0.2,0.1,0.4,0.2,0.7c0.1,0.5,0.6,2.5,0.7,2.9c0.4,1.5,0.6,2.4,1.1,3.3c6.9,14.4,13.9,32,18.4,49.1
					C455.6,295.3,455.2,311.3,448.4,318.1z"/>
				<path class="st0" d="M407,240.9c4.3,0,7.8-3.5,7.8-7.8s-3.5-7.8-7.8-7.8c-4.3,0-7.8,3.5-7.8,7.8S402.7,240.9,407,240.9z"/>
				<path class="st0" d="M407,256.5c-4.3,0-7.8,3.5-7.8,7.8c0,4.3,3.5,7.8,7.8,7.8c4.3,0,7.8-3.5,7.8-7.8
					C414.8,260,411.3,256.5,407,256.5z"/>
				<path class="st0" d="M391.4,240.9c-4.3,0-7.8,3.5-7.8,7.8c0,4.3,3.5,7.8,7.8,7.8c4.3,0,7.8-3.5,7.8-7.8
					C399.2,244.4,395.7,240.9,391.4,240.9z"/>
				<path class="st0" d="M422.6,240.9c-4.3,0-7.8,3.5-7.8,7.8c0,4.3,3.5,7.8,7.8,7.8c4.3,0,7.8-3.5,7.8-7.8
					C430.4,244.4,426.9,240.9,422.6,240.9z"/>
			</g>
		</g>
	</g>
	<g>
		<path class="st0" d="M496.3,301.5c21.4-2.2,38.4-20.2,38.4-42.2v-42.6c0-23.5-19.2-42.6-42.6-42.6l0,0c-0.1,0-0.2,0-0.3,0
			C488.3,113,436.6,63.2,374.8,63.2S261.3,113,257.8,174.1c-0.1,0-0.2,0-0.3,0c-23.5,0-42.6,19.2-42.6,42.6v42.6
			c0,23.5,19.2,42.6,42.6,42.6s42.6-19.2,42.6-42.6v-42.6c0-15.6-8.6-29.2-21.3-36.6c0.2-53.1,42.7-95.5,95.9-95.5
			s95.7,42.4,95.9,95.5c-12.6,7.4-21.3,21-21.3,36.6v42.6c0,16.4,9.5,30.6,23.2,37.7 M278.8,259.3c0,12.8-8.5,21.3-21.3,21.3
			c-12.8,0-21.3-8.5-21.3-21.3v-42.6c0-12.8,8.5-21.3,21.3-21.3c12.8,0,21.3,8.5,21.3,21.3V259.3z M366.2,348.8 M513.3,259.3
			c0,12.8-8.5,21.3-21.3,21.3c-12.8,0-21.3-8.5-21.3-21.3v-42.6c0-12.8,8.5-21.3,21.3-21.3c12.8,0,21.3,8.5,21.3,21.3V259.3z"/>
	</g>
</g>
</svg>
